<svg xmlns="http://www.w3.org/2000/svg" viewBox="0 0 512 512"><defs><style>.a,.b,.c{fill:none;stroke:#000;stroke-miterlimit:10;}.a,.b{stroke-width:30px;}.b,.c{stroke-linecap:round;}.c{stroke-width:25px;}</style></defs><title>logomark</title><circle class="a" cx="256" cy="256" r="224"/><circle cx="256" cy="150.35" r="42.32"/><path d="M315.88,226.14c-41.52,14.2-26.35,72.48-7.49,110.85,0,.6-52.81-45.91-52.81-45.91H256S203.22,337.59,203.22,337c18.87-38.37,34-96.65-7.49-110.85Z"/><line class="b" x1="190.28" y1="387.65" x2="244.72" y2="293.35"/><line class="b" x1="321.72" y1="387.65" x2="267.28" y2="293.35"/><line class="c" x1="386" y1="193.83" x2="268.59" y2="225.29"/><line class="c" x1="126" y1="193.83" x2="243.41" y2="225.29"/><path d="M205,202l23.52,6.46a103.91,103.91,0,0,0,55,0L307,202l1,17-52,20-51-24Z"/></svg>